<?xml version="1.0" encoding="utf-8"?>
<!-- Generator: Adobe Illustrator 17.0.0, SVG Export Plug-In . SVG Version: 6.00 Build 0)  -->
<!DOCTYPE svg PUBLIC "-//W3C//DTD SVG 1.1//EN" "http://www.w3.org/Graphics/SVG/1.1/DTD/svg11.dtd">
<svg version="1.1" id="Capa_1" xmlns="http://www.w3.org/2000/svg" xmlns:xlink="http://www.w3.org/1999/xlink" x="0px" y="0px"
	 width="150px" height="80px" viewBox="0 0 150 80" enable-background="new 0 0 150 80" xml:space="preserve">
<g>
	<g opacity="0.3">
		<path d="M110.941,2H90.647l-1.496,9.719c7.552,7.476,12.219,17.907,12.219,29.304c0,15.981-9.187,29.631-22.632,36.525L78.481,79
			h20.942l3.79-24.887c19.179,0,30.481-7.407,33.905-22.465c0.664-2.925,0.997-6.04,0.997-8.966C138.115,9.021,129.056,2,110.941,2z
			 M115.976,30.922c-1.729,3.923-5.069,5.881-10.022,5.881L108.896,19h1.247c4.42,0,6.631,2.729,6.631,8.18
			C116.774,28.476,116.508,29.726,115.976,30.922z"/>
		<path d="M99.532,40.764C99.532,19.524,82.073,2,60.529,2H47.576H10v8h37.576H69v8H47.576H16v7h31.576H64v8H47.576H26v8h21.576H64
			v8H47.576H16v7h31.576H70v8H47.576H10v5.979l-0.56,9.42L60,79.528v-0.271l0.361,0.092C81.905,79.349,99.532,62.004,99.532,40.764z
			"/>
	</g>
	<linearGradient id="SVGID_1_" gradientUnits="userSpaceOnUse" x1="101.4085" y1="69.6057" x2="42.9474" y2="11.1446">
		<stop  offset="0" style="stop-color:#8CA5D0"/>
		<stop  offset="0.1783" style="stop-color:#87A6CC"/>
		<stop  offset="0.379" style="stop-color:#7AA8C0"/>
		<stop  offset="0.5904" style="stop-color:#63ABAC"/>
		<stop  offset="0.8079" style="stop-color:#44B091"/>
		<stop  offset="1" style="stop-color:#22B573"/>
	</linearGradient>
	<path fill="url(#SVGID_1_)" d="M113.276,0H92.983l-1.496,9.551c7.552,7.476,12.219,17.824,12.219,29.22
		c0,15.981-9.187,29.757-22.632,36.65L80.816,77h20.942l3.79-25.054c19.179,0,30.481-7.491,33.905-22.549
		c0.664-2.925,0.997-5.914,0.997-8.84C140.45,6.895,131.392,0,113.276,0z M118.312,28.587c-1.729,3.923-5.069,5.548-10.022,5.548
		L111.232,16h1.247c4.42,0,6.631,3.061,6.631,8.512C119.11,25.809,118.844,27.39,118.312,28.587z M62.865,0H49.911H12v8h37.911H72v7
		H49.911H18v8h31.911H67v8H49.911H29v7h20.911H67v8H49.911H18v8h31.911H72v8H49.911H12v5.644l-0.06,9.42L63,77.193v-0.271
		l0.029,0.271c21.544,0,38.927-17.356,38.927-38.596C101.955,17.356,84.409,0,62.865,0z M19.109,74h-4l0,0H17v-9h-1.891l0,0h3l0,0
		H17v9H19.109L19.109,74z M27,74h-0.546l-5.621-7.943L21,69.719V74h-1v-9h0.354l5.71,8.184L26,69.521V65h1V74z M34.109,65H30v4h4v1
		h-4v4h-1v-9H34.109L34.109,65z M39.385,74.83c-2.414,0-4.236-1.864-4.236-5.083c0-3.219,1.849-5.083,4.236-5.083
		c2.443,0,4.264,1.864,4.264,5.083C43.649,72.953,41.898,74.83,39.385,74.83z M42.985,69.747c0,2.881-1.525,4.434-3.601,4.434
		c-2.061,0-3.572-1.638-3.572-4.434c0-2.753,1.511-4.433,3.586-4.433C41.503,65.314,42.985,66.924,42.985,69.747z"/>
</g>
</svg>
